<?xml version="1.0" standalone="no"?>
<!DOCTYPE svg PUBLIC "-//W3C//DTD SVG 20010904//EN"
 "http://www.w3.org/TR/2001/REC-SVG-20010904/DTD/svg10.dtd">
<svg version="1.0" xmlns="http://www.w3.org/2000/svg"
 width="1024.000000pt" height="1024.000000pt" viewBox="0 0 1024.000000 1024.000000"
 preserveAspectRatio="xMidYMid meet">

<g transform="translate(0.000000,1024.000000) scale(0.100000,-0.100000)"
fill="#000000" stroke="none">
<path d="M0 5120 l0 -5120 5120 0 5120 0 0 5120 0 5120 -5120 0 -5120 0 0
-5120z m5415 2604 c399 -49 750 -182 1130 -429 158 -102 292 -214 435 -361
252 -261 423 -525 559 -866 98 -246 139 -414 186 -753 3 -22 8 -112 11 -200
17 -433 -77 -894 -260 -1280 -143 -300 -316 -536 -577 -790 -488 -474 -1081
-727 -1765 -752 -607 -22 -1239 201 -1741 613 -510 420 -848 1001 -957 1649
-84 500 -18 1083 176 1545 98 233 238 473 379 647 87 108 305 324 419 415 189
151 422 287 663 387 413 171 878 232 1342 175z"/>
<path d="M4795 7395 c-523 -83 -953 -285 -1327 -621 -292 -263 -541 -677 -652
-1084 -65 -239 -90 -460 -83 -734 7 -295 49 -519 149 -790 123 -336 336 -633
518 -723 134 -67 33 -63 1670 -63 1630 0 1536 -3 1665 60 244 119 483 507 600
970 87 346 98 765 29 1105 -75 373 -243 738 -468 1020 -93 116 -274 292 -391
380 -321 241 -677 396 -1080 471 -126 23 -507 28 -630 9z m-533 -572 c103 -56
161 -153 162 -273 1 -93 -24 -154 -92 -223 -133 -136 -373 -113 -479 46 -43
64 -56 117 -51 202 15 227 258 358 460 248z m1894 13 c192 -89 252 -308 130
-474 -28 -38 -60 -67 -97 -87 -50 -28 -62 -30 -154 -30 -117 0 -154 14 -223
83 -65 65 -87 120 -87 222 0 97 19 146 84 213 64 68 128 95 226 96 54 1 82 -5
121 -23z m-1034 -57 c11 -6 26 -26 34 -46 14 -31 13 -38 -3 -71 -33 -68 -97
-79 -149 -27 -72 72 26 193 118 144z m-159 -98 c4 -18 7 -35 5 -37 -2 -1 -84
-17 -183 -34 -99 -17 -187 -33 -195 -36 -11 -3 -19 7 -27 36 -6 22 -8 42 -4
44 3 2 78 15 166 29 88 14 171 28 185 30 38 6 43 3 53 -32z m417 9 c226 -39
213 -35 205 -73 -4 -18 -10 -35 -14 -40 -4 -4 -79 7 -167 23 -243 47 -229 43
-226 71 3 32 10 49 19 49 4 0 87 -14 183 -30z m1040 -608 c29 -40 51 -74 49
-76 -6 -5 -71 -26 -80 -26 -14 0 -112 131 -103 139 37 32 69 50 74 44 4 -4 31
-41 60 -81z m-2588 55 l27 -22 -51 -68 c-37 -50 -55 -66 -67 -62 -9 4 -29 9
-44 12 -15 3 -26 8 -25 12 11 24 115 151 123 151 5 -1 22 -11 37 -23z m1449
-38 c266 -74 461 -276 530 -549 29 -115 23 -288 -13 -402 -70 -215 -240 -408
-426 -483 -53 -21 -65 -32 -168 -164 -61 -78 -115 -146 -121 -152 -7 -7 -46
38 -125 143 -105 139 -120 155 -164 172 -141 55 -300 204 -378 355 -64 124
-87 218 -87 356 0 133 22 227 79 342 51 100 105 168 188 237 109 90 240 147
389 170 59 9 225 -5 296 -25z m-1647 -277 c67 -23 147 -98 177 -164 62 -141
-8 -316 -157 -389 -40 -20 -64 -24 -134 -24 -72 0 -92 4 -135 27 -177 93 -222
304 -99 465 13 18 46 45 71 60 93 54 172 62 277 25z m3133 -13 c68 -33 111
-78 144 -155 45 -101 8 -259 -78 -335 -88 -77 -209 -99 -317 -59 -134 51 -221
198 -196 332 12 60 32 99 77 148 45 51 86 76 154 94 71 20 139 12 216 -25z
m-3468 -703 c15 -18 28 -2 -219 -274 l-155 -171 -8 70 c-9 82 -30 50 185 286
l130 143 27 -20 c15 -10 33 -26 40 -34z m3865 -215 l68 -74 -7 -76 c-4 -42 -9
-78 -11 -80 -2 -2 -16 12 -31 30 -15 19 -68 77 -118 129 -50 52 -125 135 -167
183 l-78 89 42 35 42 35 96 -99 c52 -54 126 -131 164 -172z m-3459 32 c37 -93
69 -173 72 -180 3 -7 -11 -16 -34 -22 -47 -14 -53 -14 -53 -1 0 6 -31 87 -70
179 -38 93 -70 171 -70 174 0 7 28 14 62 16 25 1 29 -7 93 -166z m2882 152 c3
-2 -136 -357 -142 -363 -1 -2 -21 2 -43 7 l-40 11 64 158 c35 86 69 167 74
180 9 20 15 22 47 16 21 -4 39 -7 40 -9z m-2726 -454 c19 -15 24 -29 24 -66 0
-39 -5 -51 -28 -71 -18 -15 -41 -24 -61 -24 -31 0 -58 -25 -315 -286 -155
-158 -283 -285 -284 -283 -1 2 -10 19 -20 36 -13 24 -15 38 -8 50 5 10 127
135 270 278 191 190 261 266 261 283 0 30 25 78 47 91 29 17 89 13 114 -8z
m2553 -12 c14 -17 26 -42 26 -56 0 -20 58 -84 270 -299 149 -151 270 -280 270
-288 0 -20 -32 -87 -40 -84 -3 2 -131 132 -284 291 -255 263 -281 287 -311
287 -50 0 -95 42 -95 88 1 59 37 91 102 92 28 0 42 -7 62 -31z m-2029 -241
c190 -98 227 -349 74 -497 -58 -55 -117 -82 -192 -88 -77 -6 -131 8 -194 50
-152 102 -182 325 -61 462 68 77 139 106 248 101 57 -2 87 -9 125 -28z m1645
4 c136 -71 203 -217 165 -362 -61 -231 -345 -307 -516 -137 -60 59 -91 133
-91 210 1 141 73 247 200 298 66 27 181 22 242 -9z m-912 -329 c6 -11 7 -117
4 -250 l-5 -233 -48 0 -49 0 0 238 c0 172 3 241 12 250 19 19 76 15 86 -5z
m-1188 -325 c0 -4 -30 -40 -67 -82 l-68 -74 -99 -1 -100 -1 34 38 c19 20 75
79 125 130 l90 93 43 -48 c23 -26 42 -51 42 -55z m2518 -156 l-93 -3 -74 75
-73 76 33 41 c19 22 39 48 44 56 8 12 33 -10 133 -114 l123 -128 -93 -3z"/>
<path d="M4036 6659 c-120 -94 -25 -277 119 -229 108 35 117 182 15 235 -42
22 -102 19 -134 -6z"/>
<path d="M5959 6657 c-22 -14 -39 -38 -48 -64 -13 -36 -13 -45 2 -84 24 -60
59 -84 124 -84 44 0 56 5 83 30 62 60 59 141 -9 198 -42 35 -103 37 -152 4z"/>
<path d="M4925 5911 c-201 -57 -350 -224 -392 -440 -28 -139 4 -284 89 -412
39 -58 139 -149 165 -149 8 0 13 27 15 88 l3 87 49 2 c62 3 90 22 121 82 26
52 78 86 140 93 l30 3 3 -109 c2 -100 0 -114 -22 -161 -30 -60 -51 -82 -128
-128 l-58 -35 31 -6 c48 -9 159 -7 225 5 186 34 356 188 414 378 31 99 28 234
-9 338 -37 106 -78 169 -156 241 -109 99 -223 143 -375 141 -48 0 -111 -8
-145 -18z"/>
<path d="M3458 5654 c-36 -19 -58 -63 -58 -115 0 -35 6 -48 39 -80 32 -33 45
-39 80 -39 54 0 97 22 121 63 25 41 25 73 0 115 -39 64 -121 90 -182 56z"/>
<path d="M6539 5631 c-104 -104 11 -263 142 -196 38 20 69 71 69 113 0 73 -52
122 -131 122 -35 0 -48 -6 -80 -39z"/>
<path d="M4194 4220 c-30 -12 -71 -64 -79 -100 -9 -40 25 -110 64 -133 55 -33
142 -13 177 41 22 34 22 103 0 137 -35 53 -106 78 -162 55z"/>
<path d="M5844 4216 c-47 -21 -74 -61 -74 -113 0 -82 48 -133 125 -133 75 0
128 52 128 126 0 50 -22 87 -66 114 -37 23 -70 25 -113 6z"/>
<path d="M4977 3126 c-66 -24 -129 -82 -165 -151 -60 -116 -13 -285 99 -359
60 -40 149 -60 210 -47 94 20 173 80 215 161 27 55 31 176 7 231 -26 59 -75
113 -131 146 -55 32 -174 42 -235 19z"/>
</g>
</svg>
